<svg xmlns="http://www.w3.org/2000/svg" width="23" height="21" viewBox="0 0 23 21">
    <g fill="#FFF" fill-rule="nonzero">
        <path d="M.85 1.714h2.44l3.474 12.657c.1.372.44.629.823.629h10.678c.34 0 .639-.2.78-.514l3.886-9a.873.873 0 0 0-.07-.815.843.843 0 0 0-.71-.385H10.352a.857.857 0 0 0 0 1.714h10.494l-3.148 7.286H8.225L4.751.629A.852.852 0 0 0 3.928 0H.851a.857.857 0 0 0 0 1.714zM7 21c1.103 0 2-.897 2-2s-.897-2-2-2-2 .897-2 2 .897 2 2 2zM18.993 21h.148a2.001 2.001 0 0 0 1.37-.69c.353-.397.515-.911.486-1.455a2.006 2.006 0 0 0-2.136-1.85 2.003 2.003 0 0 0-1.856 2.13A2.006 2.006 0 0 0 18.993 21z"/>
    </g>
</svg>
