<svg xmlns="http://www.w3.org/2000/svg" width="60" height="37" viewBox="0 0 60 37">
    <g fill="none" fill-rule="nonzero">
        <path fill="#FFDC64" d="M56 16H44v14h15a1 1 0 0 0 1-1v-9a4 4 0 0 0-4-4z"/>
        <path fill="#FFC850" d="M44 18h12a2 2 0 0 1 2 2v10H44V18z"/>
        <path fill="#E1A546" d="M58 31c-.492-3.391-3.434-6-7-6s-6.508 2.609-7 6h14z"/>
        <path fill="#FFDC64" d="M52 4h-8v4h10.5a.5.5 0 0 0 .5-.5V7a3 3 0 0 0-3-3z"/>
        <path fill="#B4E66E" d="M42.976 0H6.098c-.566 0-1.025.463-1.025 1.033V21.7H3.024C2.458 21.7 2 22.163 2 22.733c0 .57.458 1.034 1.024 1.034h6.147c.566 0 1.024.462 1.024 1.033 0 .57-.458 1.033-1.024 1.033H5.073v4.134c0 .57.459 1.033 1.025 1.033H44V1.033C44 .463 43.541 0 42.976 0z"/>
        <path fill="#A0D755" d="M21.048 26a7.218 7.218 0 0 0-3.653-1c-1.339 0-2.58.375-3.652 1H1.023C.458 26 0 26.448 0 27s.458 1 1.023 1h4.093v2c0 .552.459 1 1.024 1H44v-5H21.048z"/>
        <g fill="#5B5D6E" transform="translate(12 27)">
            <ellipse cx="38.812" cy="4.979" rx="5.105" ry="4.931"/>
            <ellipse cx="5.121" cy="4.979" rx="5.105" ry="4.931"/>
        </g>
        <path fill="#B4E6FF" d="M56 16l-2-8H44v8z"/>
        <circle cx="17" cy="32" r="3" fill="#C7CFE2"/>
        <circle cx="17" cy="32" r="1" fill="#7F8499"/>
        <circle cx="51" cy="32" r="3" fill="#C7CFE2"/>
        <circle cx="51" cy="32" r="1" fill="#7F8499"/>
        <path fill="#9BD6FF" d="M48.19 10H55l-.524-2H44v8h3.143v-5c0-.552.469-1 1.047-1z"/>
        <path fill="#FFC850" d="M44 6h8a1 1 0 0 1 1 1v1h-9V6z"/>
        <path fill="#F1F4FB" d="M57 21h3v4h-3z"/>
        <path fill="#FF8C66" d="M55 21v2a2 2 0 0 0 2 2h1v-4h-3z"/>
        <path fill="#FFF" d="M23.446 20a1.27 1.27 0 0 1-.908-.38l-6.162-6.24a1.311 1.311 0 0 1 0-1.84 1.272 1.272 0 0 1 1.815 0l5.255 5.322 9.363-9.481a1.272 1.272 0 0 1 1.815 0c.501.508.501 1.33 0 1.838l-10.27 10.4c-.251.254-.58.381-.908.381z"/>
    </g>
</svg>
