<?xml version="1.0" encoding="UTF-8"?>
<svg width="18px" height="15px" viewBox="0 0 18 15" version="1.1" xmlns="http://www.w3.org/2000/svg" xmlns:xlink="http://www.w3.org/1999/xlink">
    <!-- Generator: Sketch 51.3 (57544) - http://www.bohemiancoding.com/sketch -->
    <title>online-shopping-cart</title>
    <desc>Created with Sketch.</desc>
    <defs></defs>
    <g id="Welcome" stroke="none" stroke-width="1" fill="none" fill-rule="evenodd">
        <g id="Desktop-HD-Copy" transform="translate(-476.000000, -978.000000)" fill="#FFFFFF" fill-rule="nonzero">
            <g id="Group-11" transform="translate(414.000000, 567.000000)">
                <g id="Group-17" transform="translate(29.000000, 319.000000)">
                    <g id="Group-10" transform="translate(0.000000, 77.000000)">
                        <g id="Group-9" transform="translate(33.000000, 14.000000)">
                            <g id="online-shopping-cart" transform="translate(0.000000, 1.000000)">
                                <path d="M0.66352513,1.25714286 L2.56561749,1.25714286 L5.27502479,10.5390353 C5.35242304,10.8114286 5.61783309,11 5.9164194,11 L14.2436598,11 C14.5090698,11 14.7413036,10.853321 14.8518781,10.6228571 L17.8819632,4.02285714 C17.9704463,3.82382185 17.9483157,3.60382185 17.8266565,3.42571429 C17.7049972,3.24760672 17.4948939,3.14285714 17.2737058,3.14285714 L8.07287607,3.14285714 C7.70793725,3.14285714 7.40935094,3.42571429 7.40935094,3.77142857 C7.40935094,4.11714286 7.70793725,4.4 8.07287607,4.4 L16.2563657,4.4 L13.8013227,9.74285714 L6.41406325,9.74285714 L3.70469499,0.460964706 C3.62729673,0.188571429 3.36188668,0 3.06330037,0 L0.66352513,0 C0.298586309,0 0,0.282857143 0,0.628571429 C0,0.974285714 0.298586309,1.25714286 0.66352513,1.25714286 Z" id="Shape"></path>
                                <path d="M4.74770642,15 C5.62045412,15 6.33027523,14.327213 6.33027523,13.5 C6.33027523,12.672787 5.62045412,12 4.74770642,12 C3.87495872,12 3.16513761,12.672748 3.16513761,13.4999611 C3.16513761,14.3271741 3.87495872,15 4.74770642,15 Z" id="Shape"></path>
                                <path d="M14.2377611,15 C14.2727298,15 14.3193411,15 14.3543098,15 C14.7739343,14.966949 15.15859,14.7906902 15.4383397,14.4821886 C15.7180894,14.18473 15.8463217,13.7991225 15.8229955,13.3915069 C15.7647006,12.5762369 15.0070727,11.9482686 14.132855,12.0033665 C13.2586373,12.0584644 12.6058744,12.7855856 12.6641693,13.6008167 C12.7224231,14.3830358 13.4101547,15 14.2377611,15 Z" id="Shape"></path>
                            </g>
                        </g>
                    </g>
                </g>
            </g>
        </g>
    </g>
</svg>