<svg xmlns="http://www.w3.org/2000/svg" xmlns:xlink="http://www.w3.org/1999/xlink" width="39" height="46" viewBox="0 0 39 46">
    <defs>
        <path id="a" d="M.127.145H12.88v6.743H.127z"/>
    </defs>
    <g fill="none" fill-rule="evenodd">
        <g transform="translate(13)">
            <mask id="b" fill="#fff">
                <use xlink:href="#a"/>
            </mask>
            <path fill="#82BF44" d="M12.652 3.581c.47.543.167 1.363-.525 1.574A62.73 62.73 0 0 0 7.88 6.63a3.807 3.807 0 0 1-2.75.003A61.64 61.64 0 0 0 .865 5.15c-.687-.21-.979-1.03-.51-1.57C2.112 1.56 4.188.22 6.326.148c.06-.003.118-.003.177-.003.061 0 .118 0 .179.003 2.138.07 4.215 1.412 5.97 3.433" mask="url(#b)"/>
        </g>
        <path fill="#82BF44" d="M2.914 34.68c-.433.477-1.258.414-1.557-.143C.473 32.896 0 31.26 0 29.793c0-.629.028-1.275.083-1.935.054-.647.794-1.037 1.44-.776a63.255 63.255 0 0 1 4.95 2.252c.613.312.703 1.082.209 1.54a62.98 62.98 0 0 0-3.768 3.806M16.608 7.607c.508.186.524.884.037 1.12a67.201 67.201 0 0 0-8.848 5.179c-.39.27-.915-.084-.773-.534A42.182 42.182 0 0 1 9.619 6.98a1.811 1.811 0 0 1 2.078-.92c1.636.435 3.279.95 4.91 1.547M12.333 43.353c-.573.633-1.536.85-2.298.432a24.537 24.537 0 0 1-6.622-5.308c-.565-.65-.544-1.592.025-2.24a67.379 67.379 0 0 1 4.557-4.725c.631-.592 1.62-.676 2.368-.223a71.653 71.653 0 0 1 7.165 4.962c.616.485.628 1.369.045 1.89a69.91 69.91 0 0 0-5.24 5.212M17.56 20.407c.573.344.587 1.19.04 1.579a70.081 70.081 0 0 0-6.78 5.49 1.95 1.95 0 0 1-2.302.263 63.158 63.158 0 0 0-4.313-2.28c-.78-.376-1.281-1.203-1.195-2.088.24-2.428.749-4.924 1.48-7.38a1.364 1.364 0 0 1 1.788-.904c.3.113.638.24 1.017.385 3.484 1.273 6.925 2.929 10.265 4.935M36.086 34.68c.433.477 1.257.414 1.558-.143C38.528 32.896 39 31.26 39 29.793c0-.629-.027-1.275-.082-1.935-.055-.647-.795-1.037-1.44-.776a62.798 62.798 0 0 0-4.95 2.252c-.615.312-.704 1.082-.209 1.54a63.436 63.436 0 0 1 3.767 3.806M22.392 7.607c-.508.186-.524.884-.037 1.12a67.022 67.022 0 0 1 8.847 5.179c.39.27.916-.084.774-.534a42.094 42.094 0 0 0-2.595-6.392 1.81 1.81 0 0 0-2.077-.92c-1.637.435-3.28.95-4.912 1.547M21.44 20.407c-.574.344-.586 1.19-.04 1.579a70.149 70.149 0 0 1 6.78 5.49 1.95 1.95 0 0 0 2.303.263 63.3 63.3 0 0 1 4.313-2.28c.78-.376 1.282-1.203 1.194-2.088-.24-2.428-.748-4.924-1.479-7.38a1.364 1.364 0 0 0-1.788-.904c-.301.113-.639.24-1.017.385-3.485 1.273-6.927 2.929-10.266 4.935M20 46c-1.764 0-3.547-.3-5.324-.898-.675-.227-.894-1.09-.429-1.642a68.265 68.265 0 0 1 4.695-5.032 1.516 1.516 0 0 1 2.12.008 68.005 68.005 0 0 1 4.694 5.031c.463.55.24 1.41-.435 1.635-1.777.597-3.558.898-5.322.898M28.963 43.785c-.763.417-1.724.203-2.297-.431a70.2 70.2 0 0 0-5.241-5.21 1.224 1.224 0 0 1 .056-1.9 71.462 71.462 0 0 1 7.165-4.959c.747-.454 1.733-.358 2.362.233a67.38 67.38 0 0 1 4.558 4.722c.566.648.584 1.588.02 2.237-1.823 2.092-4.122 3.935-6.623 5.308M20.596 35.6a1.7 1.7 0 0 1-2.19.001 70.464 70.464 0 0 0-6.902-5.125 1.104 1.104 0 0 1-.13-1.754 68.903 68.903 0 0 1 6.903-5.344 2.172 2.172 0 0 1 2.434-.01 69.173 69.173 0 0 1 6.917 5.356c.548.483.48 1.353-.132 1.751a70.408 70.408 0 0 0-6.9 5.125M20.71 19.679a2.435 2.435 0 0 1-2.418 0 64.033 64.033 0 0 0-8.809-4.24c-.563-.217-.66-.957-.155-1.285a64.263 64.263 0 0 1 8.866-4.876 3.206 3.206 0 0 1 2.61 0 64.46 64.46 0 0 1 8.868 4.875c.502.33.41 1.069-.155 1.287a63.925 63.925 0 0 0-8.807 4.239"/>
    </g>
</svg>
