<svg xmlns="http://www.w3.org/2000/svg" width="17" height="23" viewBox="0 0 17 23">
    <path fill="#FFF" fill-rule="nonzero" d="M11.8 9.65a5.384 5.384 0 0 0 2.091-4.26A5.397 5.397 0 0 0 8.5 0a5.397 5.397 0 0 0-5.391 5.39c0 1.731.82 3.274 2.092 4.26C2.148 10.942 0 13.967 0 17.484v1.22c0 .497.402.9.899.9h3.83l3.136 3.134a.896.896 0 0 0 1.27 0l3.136-3.135h3.83a.898.898 0 0 0 .899-.898v-1.221c0-3.517-2.148-6.542-5.2-7.832zM4.905 5.39A3.598 3.598 0 0 1 8.5 1.798a3.598 3.598 0 0 1 3.594 3.594A3.598 3.598 0 0 1 8.5 8.984a3.598 3.598 0 0 1-3.594-3.593zm10.297 12.415h-3.305a.898.898 0 0 0-.635.264L8.5 20.83l-2.763-2.762a.898.898 0 0 0-.635-.264H1.797v-.322A6.71 6.71 0 0 1 8.5 10.781a6.71 6.71 0 0 1 6.703 6.702v.322z"/>
</svg>
