<?xml version="1.0" encoding="UTF-8"?>
<svg width="11px" height="13px" viewBox="0 0 11 13" version="1.1" xmlns="http://www.w3.org/2000/svg" xmlns:xlink="http://www.w3.org/1999/xlink">
    <!-- Generator: Sketch 51.3 (57544) - http://www.bohemiancoding.com/sketch -->
    <title>Sign_of_Georgian_Lari Copy 6</title>
    <desc>Created with Sketch.</desc>
    <defs></defs>
    <g id="Welcome" stroke="none" stroke-width="1" fill="none" fill-rule="evenodd">
        <g id="Desktop-HD-Copy-4" transform="translate(-1020.000000, -289.000000)" fill="#545454" fill-rule="nonzero">
            <g id="Group-7" transform="translate(960.000000, 283.000000)">
                <g id="Sign_of_Georgian_Lari-Copy-6" transform="translate(60.000000, 6.000000)">
                    <path d="M4.84432121,0 L4.01897723,0.834421651 L3.91621181,0.929329377 L3.91943237,2.10388617 L3.80846914,2.13896076 L3.71741487,2.17079317 L3.62109058,2.20056236 L3.54818861,2.23239477 L3.46386826,2.26570089 L3.37105732,2.30077549 L3.28820087,2.34086074 L3.20358774,2.37740906 L3.1274652,2.41425212 L3.06276104,2.44431605 L2.98312516,2.48764349 L2.92017767,2.52448656 L2.85547351,2.56103487 L2.77613041,2.60436231 L2.71289015,2.63943691 L2.62183588,2.69455413 L2.52229102,2.75969266 L2.41484113,2.83308404 L2.33198468,2.88790651 L2.23741706,2.95982417 L2.17769015,3.0063938 L2.10156761,3.06652167 L2.03188621,3.12163889 L1.95722757,3.18176677 L1.88930284,3.23688399 L1.83630984,3.29023274 L1.77160568,3.35006587 L1.65390853,3.46206878 L1.60267221,3.5118806 L1.56109759,3.55550278 L1.50488402,3.61032526 L1.4369593,3.68401138 L1.37225514,3.75386582 L1.3309733,3.80898304 L1.2794442,3.86557399 L1.23318512,3.92747033 L1.18663326,3.9875982 L1.14183807,4.04743134 L1.09557899,4.10431702 L1.05400437,4.16090796 L1.01096586,4.21455146 L0.977881835,4.26436328 L0.939820566,4.32625962 L0.900002623,4.39139816 L0.865161923,4.43796778 L0.832077897,4.48807435 L0.780548794,4.57148704 L0.757419254,4.61982513 L0.729312471,4.6699317 L0.689494528,4.73507023 L0.658167175,4.78488205 L0.639722099,4.83498861 L0.60166083,4.90012714 L0.565356235,4.9667394 L0.525538292,5.04867837 L0.495674834,5.12531193 L0.462590808,5.20695616 L0.429214003,5.27563162 L0.402863894,5.33546476 L0.377977679,5.40561394 L0.33991641,5.49226882 L0.310052953,5.58246064 L0.267014441,5.71096924 L0.243592122,5.78937127 L0.217242013,5.87779462 L0.194112472,5.95943884 L0.174203501,6.04137781 L0.122674398,6.26803632 L0.109499343,6.33818551 L0.0878336978,6.42012448 L0.0729019692,6.52004286 L0.0629474834,6.58694986 L0.0480157548,6.6918789 L0.0333768052,6.80712399 L0.0184450765,6.99045507 L0.00673391683,7.11896366 L0.00175667396,7.21740832 L0,7.33589561 L0.00175667396,7.62445046 L0.00497724287,7.71965294 L0.0149317286,7.85641438 L0.0234223194,7.96812254 L0.0316201312,8.04829304 L0.039817943,8.1334742 L0.0480157548,8.20185492 L0.0629474834,8.28703608 L0.0746586431,8.3686803 L0.0863698028,8.44207121 L0.101301531,8.51546306 L0.114476586,8.57883265 L0.134385558,8.667256 L0.152537855,8.74418478 L0.169226258,8.82258682 L0.195576367,8.90747323 L0.217242013,8.99442333 L0.238614879,9.06781423 L0.25852385,9.13118477 L0.280189496,9.20457568 L0.30507571,9.2729564 L0.329961925,9.3463473 L0.358068708,9.41797069 L0.382954922,9.48134122 L0.406084463,9.53645797 L0.437704594,9.61486001 L0.469031946,9.69178785 L0.503872646,9.76341123 L0.533736104,9.83503461 L0.563599561,9.89368829 L0.593463018,9.94703752 L0.628303718,10.0236711 L0.65963107,10.0820295 L0.691251202,10.1421574 L0.726091902,10.2022853 L0.747464768,10.240603 L0.769130414,10.2771513 L0.800457766,10.3290264 L0.828857328,10.3773645 L0.855207437,10.4192172 L0.886827569,10.4625452 L0.913177678,10.5091148 L0.954752295,10.5724844 L0.99105689,10.6258336 L1.03087483,10.6794771 L1.05898162,10.722805 L1.09060175,10.7643635 L1.13041969,10.8162385 L1.16350372,10.8595665 L1.2097628,10.9161574 L1.26802582,10.9863056 L1.31604157,11.0496762 L1.37225514,11.1115725 L1.41382976,11.1631523 L1.45833216,11.2082487 L1.51161794,11.2648397 L1.55963369,11.3184832 L1.60764945,11.3668213 L1.64395404,11.4018963 L1.68874923,11.4434548 L1.73530109,11.4903197 L1.77511903,11.526868 L1.81815754,11.5669532 L1.85299824,11.6002589 L1.89925733,11.6403441 L1.94229584,11.6804294 L1.98064989,11.7069564 L2.01519781,11.7405573 L2.05179518,11.7688527 L2.08165864,11.7903686 L2.11474266,11.8171908 L2.15456061,11.8490232 L2.19262188,11.878792 L2.23419649,11.9088568 L2.2786989,11.9421625 L2.31851684,11.9722264 L2.34662363,11.9907949 L2.37004595,12.00907 L2.39639605,12.0273432 L2.42479562,12.0473858 L2.44938905,12.0641867 L2.4710547,12.0756813 L0.919911595,12.0756813 L0.00175667396,13 L9.22927265,13 L10.1442065,12.0756813 L5.33472602,12.074208 L5.2304967,12.0724396 L5.10430896,12.0591756 L4.92220042,12.0441441 L4.75473084,12.0108375 L4.6256153,11.9872579 L4.49122975,11.9557207 L4.37528927,11.930667 L4.24763762,11.8988346 L4.1630245,11.8737818 L4.02893172,11.8254437 L3.91445513,11.7838852 L3.81666695,11.7488101 L3.72561268,11.7104933 L3.63104507,11.6621552 L3.54496804,11.6203015 L3.4340048,11.5687208 L3.32450546,11.5085929 L3.22671728,11.4502344 L3.13244244,11.3933483 L3.06100437,11.3467786 L2.96819343,11.2916609 L2.8835803,11.2282913 L2.81067833,11.1814274 L2.73953303,11.1280782 L2.65843325,11.0596975 L2.5755768,10.9930852 L2.49096367,10.9179249 L2.40986389,10.8477767 L2.32349409,10.7628903 L2.24415098,10.6844873 L2.18940131,10.6308447 L2.12469715,10.5524418 L2.07346083,10.4976202 L2.02193172,10.4425025 L1.95722757,10.362332 L1.88608227,10.2739087 C1.88608227,10.2739087 1.82313479,10.1889157 1.82313479,10.1822427 C1.82313479,10.1755697 1.7616512,10.1038416 1.7616512,10.1038416 L1.69226258,9.99861733 L1.63575623,9.91520511 L1.57954267,9.82678176 L1.52654967,9.73511576 L1.48175448,9.65818792 L1.44369321,9.58155435 L1.38718687,9.47633009 L1.34414836,9.37641218 L1.30257374,9.27944078 L1.25631466,9.17952287 L1.22469453,9.10436255 L1.19834442,9.03598183 L1.17023763,8.94932695 L1.13188359,8.82907119 L1.09235842,8.70233106 L1.05254048,8.56055944 L1.02765426,8.43882949 L1.00101138,8.30531024 L0.976125161,8.19183361 L0.959729538,8.05654589 L0.946261704,7.92980576 L0.933086649,7.78626519 L0.926645512,7.7028525 L0.919911595,7.60617631 L0.919911595,7.51775296 L0.921668269,7.43434027 L0.926645512,7.34768539 L0.929866081,7.20915548 L0.936307218,7.10570016 L0.941284461,6.99723419 L0.949775052,6.92207435 L0.962950107,6.81861903 L0.977881835,6.7237113 L0.989592995,6.62674037 L1.00598862,6.54509614 L1.02765426,6.44340929 L1.04404989,6.3599966 L1.05898162,6.29662654 L1.08064726,6.21321385 L1.1037768,6.14129619 L1.13041969,6.04137781 L1.1567698,5.96946015 L1.1916105,5.86954177 L1.22469453,5.77610777 L1.25807133,5.6941688 L1.29437593,5.59071348 L1.34092779,5.4907951 L1.37401181,5.43066723 L1.41207308,5.349023 L1.45511159,5.26207338 L1.48995229,5.19693485 L1.53796805,5.11204843 L1.59271772,5.02686728 L1.62931509,4.96025502 L1.67235361,4.89688496 L1.73530109,4.80492467 L1.78829409,4.72829111 L1.83630984,4.6566682 L1.88608227,4.5897612 L1.92912078,4.52963332 L1.96893873,4.48453741 L2.01695448,4.43118866 L2.05501575,4.38285056 L2.09161312,4.34276531 L2.13640831,4.29796415 L2.17446958,4.25109978 L2.23068314,4.19951949 L2.28045557,4.14764446 L2.38000043,4.05096827 L2.41484113,4.01412521 L2.46110021,3.97256623 L2.50765207,3.93071252 L2.54893391,3.89239573 L2.59870634,3.84906829 L2.65667658,3.80397239 L2.71142625,3.76241341 L2.76617592,3.71879123 L2.82238949,3.68401138 L2.89031422,3.63213635 L2.95501837,3.58556672 L3.02469977,3.54047081 L3.07417942,3.50362775 L3.14064025,3.46531097 L3.20036717,3.42846791 L3.24486958,3.39869871 L3.30137592,3.37364543 L3.34441443,3.34682368 L3.40238467,3.31675974 L3.46708883,3.28345362 L3.53179299,3.25338968 L3.56985426,3.23010486 L3.63104507,3.20682005 L3.68403806,3.18324049 L3.74552165,3.15494502 L3.79529408,3.13342867 L3.84477373,3.11338605 L3.89308226,3.09658561 L3.91943237,3.08479583 L3.91943237,7.43434027 L4.84256454,6.50854783 L4.84432121,2.84457907 L4.85573959,2.83956842 L4.89555754,2.83308404 L4.9421094,2.82807338 L5.00505688,2.81805207 L5.06624769,2.81304141 L5.10518729,2.81156769 L5.10606563,2.81215718 L5.1218757,2.81392565 L5.19887657,2.80537805 L5.28173303,2.8003674 L5.38186344,2.79712521 L5.69103806,2.79535674 L5.80375797,2.80125163 L5.89978948,2.80803076 L5.97210589,2.81451513 L6.04090895,2.82217849 L6.11527482,2.83131557 L6.17090283,2.83956842 L6.22067526,2.84634754 L6.22213915,7.43610874 L7.14790633,6.51002155 L7.14790633,3.08833277 L7.16195972,3.09245919 L7.1932866,3.10572269 L7.23720439,3.12340736 L7.2960525,3.14492371 L7.33674924,3.16496633 L7.39647616,3.19090385 L7.46264327,3.22096779 L7.5241278,3.25103172 L7.58443934,3.28168515 L7.65090064,3.31440179 L7.72438863,3.35360281 L7.7767956,3.38101404 L7.82305468,3.40606733 L7.86199382,3.43288907 L7.90766734,3.45941608 L7.94485074,3.4794587 L7.9928665,3.5118806 L8.03444112,3.53958658 L8.08509235,3.57053475 L8.12900826,3.60030394 L8.17292605,3.63213635 L8.21742845,3.66455824 L8.26134437,3.69550641 L8.31287347,3.73470743 L8.36001136,3.77155049 L8.3966092,3.8007302 L8.43554834,3.83226786 L8.47770851,3.86557399 L8.52338203,3.90330128 L8.57813217,3.95488157 L8.62526912,3.99585105 L8.67006384,4.03917849 L8.7189584,4.08250593 L8.76697415,4.13261249 L8.80327875,4.16267643 L8.83724111,4.19951949 L8.89199125,4.2578789 L8.93942051,4.30857495 L8.97162714,4.34630225 L9.0055895,4.38461903 L9.0562398,4.44209421 L9.10923233,4.50723274 L9.15402798,4.56146573 L9.17949929,4.60155098 L9.21199822,4.64900484 L9.25240172,4.70087987 L9.28489972,4.74509154 L9.31622755,4.78930322 L9.34696887,4.83410438 L9.38356671,4.88833737 L9.4148936,4.93932816 L9.44387919,4.9826556 L9.46964374,5.02097239 L9.49599385,5.0628261 L9.5217584,5.10438508 L9.54576628,5.15124945 L9.56743192,5.19369266 L9.59466084,5.24468345 L9.61866778,5.28388447 L9.63711332,5.32131702 L9.65848572,5.36729716 L9.67751682,5.40060329 L9.69596143,5.43892007 L9.72494702,5.50081642 L9.75393261,5.5683129 L9.77032823,5.6033875 L9.78613736,5.64082005 L9.80194836,5.67766311 L9.81600175,5.71509566 L9.83268969,5.76196003 L9.84674308,5.79939258 L9.86665205,5.84095156 L9.87982664,5.87514192 L9.89065993,5.90933228 L9.90559119,5.95531242 L9.91554661,5.98802906 L9.9296,6.03283022 L9.94277459,6.08146306 L9.95770679,6.13039065 L9.97498028,6.18138144 L9.99166915,6.24828844 L10.0066004,6.30311092 L10.0265094,6.39330273 L10.0373427,6.43987236 L10.0487606,6.49174739 L10.0619361,6.56189658 L10.0654495,6.57516008 L10.0745251,6.6302773 L10.0868219,6.69541583 L10.095312,6.76615451 L10.1043886,6.8363037 L10.1152209,6.92561128 L10.1242976,7.0072555 L10.1307387,7.1039317 L10.1365943,7.18999709 L10.1433277,7.30258948 L10.1474276,7.42932961 L10.9985356,6.57250738 L11,6.55688592 L10.9950223,6.52004286 L10.9877023,6.47435747 L10.9795045,6.42660886 L10.9727711,6.38917631 L10.9628166,6.33170113 L10.9502266,6.28159457 L10.9420288,6.23473019 L10.9221199,6.15485444 L10.9121663,6.11211649 L10.8989908,6.0605362 L10.8831807,6.00217679 L10.8700061,5.95354395 L10.8568306,5.90373213 L10.8442416,5.86364688 L10.8310661,5.81678251 L10.8143772,5.76431799 L10.7971037,5.70920077 L10.7739746,5.63993581 L10.7555291,5.58511334 L10.7382546,5.53146984 L10.7174678,5.47988956 L10.7001943,5.43567788 L10.6785277,5.37142358 L10.6571553,5.32220125 L10.6378319,5.27887381 L10.6155807,5.22552506 L10.5939151,5.17630273 L10.567565,5.11352216 L10.5458993,5.06429983 L10.5218914,5.01949866 L10.4955413,4.96349721 L10.4738757,4.921054 L10.4466468,4.86416832 L10.4232244,4.82172511 L10.3992175,4.7766292 L10.3719886,4.72829111 L10.3403685,4.67494235 L10.3113838,4.62070937 L10.2859116,4.57797142 L10.2592682,4.53140179 L10.2335037,4.49131654 L10.2071545,4.44386267 L10.1831457,4.40613538 L10.1532832,4.36369217 L10.1324954,4.33038605 L10.1108297,4.30209057 L10.078624,4.25198401 L10.0455405,4.20511964 L10.0165549,4.1644449 L9.98991154,4.1267176 L9.95858465,4.0842744 L9.92608666,4.04183119 L9.89300216,3.99909324 L9.87397106,3.97079777 L9.84410854,3.93660741 L9.82507743,3.91332259 L9.79287175,3.87323734 L9.76300829,3.83727851 L9.72992379,3.7980775 L9.6792735,3.73794962 L9.63711332,3.68961152 L9.59817418,3.65041051 L9.56069847,3.60885153 L9.51941617,3.56699782 L9.45881138,3.50451198 L9.40669579,3.45528966 L9.36365774,3.41284645 L9.31125077,3.36097142 L9.26411288,3.31528602 L9.22253827,3.28021143 L9.16808137,3.2283364 L9.12240785,3.19090385 L9.08434658,3.15582925 L9.03369629,3.11662824 L8.99065731,3.08155364 L8.94088488,3.04058416 L8.89286912,3.00492007 L8.83987566,2.96660329 L8.79273871,2.93300242 L8.73886737,2.89055921 L8.68733827,2.85371615 L8.6460569,2.82306272 L8.60272561,2.79476725 L8.5573444,2.7652928 L8.50581529,2.73287091 L8.4513584,2.69779632 L8.40158597,2.66449019 L8.35854699,2.63855267 L8.30701789,2.6102572 L8.26134437,2.58343545 L8.21010851,2.55602422 L8.15623718,2.52448656 L8.1099781,2.50002276 L8.05610676,2.47172729 L8.00369885,2.44578978 L7.95744071,2.42250496 L7.89273608,2.39185154 L7.83476584,2.36414555 L7.77503893,2.33585008 L7.70125862,2.30342819 L7.64592386,2.2789644 L7.5820971,2.25420586 L7.5273479,2.23239477 L7.47669667,2.21412061 L7.42194746,2.19407798 L7.3484604,2.16578251 L7.29371026,2.14809784 L7.23164112,2.12658149 L7.18099082,2.11154953 L7.14937069,2.10565464 L7.14790633,0.00265270041 L6.22067526,0.931097844 L6.22126081,1.90788108 L6.14689495,1.8960913 L6.04822843,1.88459627 L5.96947088,1.87604868 L5.836842,1.86602737 L5.71358204,1.86190094 L5.64068007,1.85954299 L5.463256,1.86131145 L5.34731552,1.86278518 L5.21205163,1.86779583 L5.11836235,1.87280649 L5.09376891,1.87870138 L5.09347613,1.87899612 L5.01325469,1.8854805 L4.93039824,1.89196488 L4.872428,1.90375466 L4.84578511,1.9152497 L4.84432121,0 Z" id="path2995"></path>
                </g>
            </g>
        </g>
    </g>
</svg>