<svg xmlns="http://www.w3.org/2000/svg" xmlns:xlink="http://www.w3.org/1999/xlink" width="142" height="30" viewBox="0 0 142 30">
    <defs>
        <path id="a" d="M0 .01h14.995v12.983H0z"/>
        <path id="c" d="M0 0h8v12H0z"/>
        <path id="e" d="M0 .006h7.997v11.99H0z"/>
    </defs>
    <g fill="none" fill-rule="evenodd">
        <path fill="#FFFFFE" d="M14.828 28.097c-1.643.886-4.38 1.351-5.699 1.36 1.333.352 2.735.543 4.184.543C21.977 30 29 23.284 29 15c0-8.284-7.023-15-15.687-15C8.7 0 4.551 1.906 1.68 4.939 1.211 3.71.593 2.45 0 1.69 1.623 6.57 4.196 15.3.876 24.136c2.634-4.725 9.073-7.706 11.89-8.948-.978 2.943-4.548 8.892-9.385 11.418 3.502-.779 8.877-.275 11.447 1.491z"/>
        <g transform="translate(45 8)">
            <mask id="b" fill="#fff">
                <use xlink:href="#a"/>
            </mask>
            <path fill="#FFF" d="M2.138.298c.019-.163.188-.289.34-.289h.302c.094 0 .264.072.32.18L7.48 7.98h.037L11.895.19c.056-.108.226-.18.32-.18h.303c.15 0 .32.126.34.289l2.132 12.118c.037.234-.133.396-.359.396h-2.227c-.17 0-.34-.144-.358-.288l-.85-5.572h-.037l-3.17 5.842a.445.445 0 0 1-.322.199h-.34a.412.412 0 0 1-.32-.199l-3.19-5.842H3.78l-.83 5.572c-.02.144-.17.288-.36.288H.365c-.227 0-.396-.162-.359-.396L2.138.298z" mask="url(#b)"/>
        </g>
        <path fill="#FFF" d="M64.053 15.223l-3.996-5.726c-.145-.223 0-.497.29-.497h2.35c.145 0 .235.086.29.154L65.5 12.67l2.514-3.515c.054-.068.126-.154.29-.154h2.35c.29 0 .434.274.29.497l-4.052 5.709v5.468c0 .172-.162.326-.343.326h-2.152a.335.335 0 0 1-.344-.326v-5.451z"/>
        <g transform="translate(72 9)">
            <mask id="d" fill="#fff">
                <use xlink:href="#c"/>
            </mask>
            <path fill="#FFF" d="M.085 10.25l.798-1.383c.136-.217.459-.184.578-.1.068.033 1.29.916 2.411.916.68 0 1.173-.417 1.173-1 0-.7-.595-1.233-1.75-1.683C1.835 6.433 0 5.317 0 3.317 0 1.667 1.308 0 3.923 0 5.69 0 7.05.883 7.558 1.25c.204.117.17.417.102.533l-.866 1.284c-.119.183-.425.333-.577.216-.153-.083-1.393-1-2.43-1-.61 0-1.07.4-1.07.85 0 .617.51 1.084 1.852 1.617C5.894 5.267 8 6.283 8 8.55 8 10.267 6.488 12 3.991 12c-2.208 0-3.43-.9-3.821-1.283-.17-.167-.22-.234-.085-.467" mask="url(#d)"/>
        </g>
        <path fill="#FFF" d="M82 9.326A.33.33 0 0 1 82.336 9h7.328a.33.33 0 0 1 .336.326v1.868a.33.33 0 0 1-.336.326H84.76v2.126h4.035c.178 0 .337.154.337.325v1.869a.33.33 0 0 1-.337.326h-4.035v2.314h4.903a.33.33 0 0 1 .336.326v1.868a.33.33 0 0 1-.336.326h-7.328a.33.33 0 0 1-.336-.326V9.326zM93 9.326A.33.33 0 0 1 93.336 9h7.328a.33.33 0 0 1 .336.326v1.868a.33.33 0 0 1-.336.326H95.76v2.126h4.035c.178 0 .337.154.337.325v1.869a.33.33 0 0 1-.337.326h-4.035v2.314h4.903a.33.33 0 0 1 .336.326v1.868a.33.33 0 0 1-.336.326h-7.328a.33.33 0 0 1-.336-.326V9.326zM108.522 18.463c2.028 0 3.5-1.526 3.5-3.48 0-1.937-1.472-3.463-3.5-3.463h-1.723v6.943h1.723zM104 9.326a.33.33 0 0 1 .323-.326h4.378c3.464 0 6.299 2.692 6.299 5.983 0 3.325-2.835 6.017-6.299 6.017h-4.378a.33.33 0 0 1-.323-.326V9.326zM117.979 17c1.095 0 2.021.926 2.021 2.021 0 1.074-.926 1.979-2.021 1.979A2.004 2.004 0 0 1 116 19.021c0-1.095.905-2.021 1.979-2.021M126.421 9c1.503 0 3.148.585 4.365 1.571.16.117.179.318.035.451l-1.413 1.404a.4.4 0 0 1-.483.017c-.68-.585-1.466-.802-2.343-.802-1.95 0-3.523 1.537-3.523 3.376 0 1.821 1.591 3.326 3.541 3.326.519 0 1.055-.067 1.592-.268v-.97h-1.127c-.197 0-.34-.133-.34-.3V15.15c0-.183.143-.317.34-.317h3.595c.18 0 .322.15.322.317l.018 4.496a.402.402 0 0 1-.143.268S129.015 21 126.42 21c-3.56 0-6.421-2.64-6.421-5.983C120 11.674 122.862 9 126.421 9"/>
        <g transform="translate(134 9)">
            <mask id="f" fill="#fff">
                <use xlink:href="#e"/>
            </mask>
            <path fill="#FFF" d="M0 .331A.33.33 0 0 1 .336.006h7.325a.33.33 0 0 1 .336.325v1.867a.33.33 0 0 1-.336.326h-4.9v2.123h4.033c.177 0 .336.155.336.326V6.84a.33.33 0 0 1-.336.325H2.76v2.313h4.901a.33.33 0 0 1 .336.325v1.867a.33.33 0 0 1-.336.325H.336A.33.33 0 0 1 0 11.67V.33z" mask="url(#f)"/>
        </g>
    </g>
</svg>
