<?xml version="1.0" encoding="UTF-8"?>
<svg width="12px" height="12px" viewBox="0 0 12 12" version="1.1" xmlns="http://www.w3.org/2000/svg" xmlns:xlink="http://www.w3.org/1999/xlink">
    <!-- Generator: Sketch 51.3 (57544) - http://www.bohemiancoding.com/sketch -->
    <title>close-cross copy</title>
    <desc>Created with Sketch.</desc>
    <defs></defs>
    <g id="Welcome" stroke="none" stroke-width="1" fill="none" fill-rule="evenodd" opacity="0.190680804">
        <g id="Desktop-HD-Copy-4" transform="translate(-1466.000000, -415.000000)" fill="#000000" fill-rule="nonzero">
            <g id="close-cross-copy" transform="translate(1466.000000, 415.000000)">
                <path d="M8.03182814,5.9998563 L11.5790495,2.45287989 C12.1403168,1.8916058 12.1403168,0.981726739 11.5790495,0.420740031 C11.0183569,-0.140246677 10.1079139,-0.140246677 9.54722132,0.420740031 L6,3.96829122 L2.45277868,0.420740031 C1.89208607,-0.140246677 0.981643137,-0.140246677 0.420950533,0.420740031 C-0.140316844,0.98201413 -0.140316844,1.89189319 0.420950533,2.45287989 L3.96788447,5.9998563 L0.420950533,9.54683271 C-0.140316844,10.1081068 -0.140316844,11.0179859 0.420950533,11.5789726 C0.701153142,11.8597533 1.06929626,11.9997126 1.4368646,11.9997126 C1.80414556,11.9997126 2.17257607,11.8597533 2.45277868,11.5789726 L6,8.03199617 L9.54722132,11.57926 C9.82771132,11.8600407 10.1955671,12 10.5631354,12 C10.9307037,12 11.2988469,11.8600407 11.5790495,11.57926 C12.1403168,11.0179859 12.1403168,10.1081068 11.5790495,9.54712011 L8.03182814,5.9998563 Z" id="Shape"></path>
            </g>
        </g>
    </g>
</svg>