<svg xmlns="http://www.w3.org/2000/svg" width="8" height="9" viewBox="0 0 8 9">
    <path fill="#FFF" fill-rule="nonzero" d="M3.523 0l-.6.578-.075.065.002.814-.08.024-.066.022-.07.02-.053.023-.062.023-.067.024-.06.028-.062.025-.055.025-.048.021-.057.03-.046.026-.047.025-.058.03-.046.024-.066.038-.073.046-.078.05-.06.038-.069.05-.043.032-.056.042-.05.038-.055.042-.049.038-.039.037-.047.041-.085.078-.037.034-.03.03-.042.038-.049.051-.047.049-.03.038-.037.04-.034.042-.034.042-.033.041-.033.04-.03.039-.032.037-.024.034-.027.043-.03.045-.025.032-.024.035-.037.058-.017.033-.02.035-.03.045-.022.035-.014.034-.027.045-.027.047-.029.056-.022.053-.024.057-.024.047-.019.042-.018.048-.028.06-.022.063-.03.089-.018.054-.019.061-.017.057-.014.056-.038.157-.01.049-.015.057-.011.069-.007.046-.011.073-.01.08-.012.127-.008.089L0 4.997 0 5.079l.001.2.003.065.007.095.006.077.006.056.006.059.006.047.01.06.01.056.008.05.01.051.01.044L.098 6l.013.054.012.054.02.059.015.06.016.05.014.045.016.05.018.048.018.05.02.05.019.044.016.038.023.054.023.054.025.05.022.049.022.04.022.037.025.053.023.04.023.042.025.042.016.027.015.025.023.036.02.033.02.03.023.03.02.032.03.043.026.037.029.037.02.03.023.03.03.035.023.03.034.04.042.048.035.044.041.043.03.035.033.032.038.039.035.037.035.033.027.025.032.028.034.033.029.025.031.028.026.023.033.028.032.027.027.019.026.023.026.02.022.015.024.018.029.022.028.02.03.022.032.023.03.02.02.013.017.013.019.013.02.013.018.012.016.008H.67L.001 9h6.711l.666-.64H3.88l-.076-.002-.092-.01-.132-.01-.122-.023-.094-.016-.098-.022-.084-.017-.093-.022-.061-.018-.098-.033-.083-.029-.071-.024-.066-.027-.07-.033-.062-.03-.08-.035-.08-.042-.071-.04-.069-.04-.052-.032-.067-.038-.062-.044-.053-.032-.052-.037-.059-.047-.06-.046-.061-.052-.06-.049-.062-.059-.058-.054-.04-.037-.047-.054-.037-.038-.038-.039-.047-.055-.051-.061s-.046-.06-.046-.064a.56.56 0 0 0-.045-.054l-.05-.073-.041-.058-.041-.06-.039-.064-.032-.054-.028-.053-.041-.072-.031-.07-.03-.067-.034-.069-.023-.052-.02-.047-.02-.06-.028-.084-.029-.087-.029-.098-.018-.085-.019-.092L.71 5.67l-.012-.093-.01-.088-.01-.1-.004-.057-.005-.067v-.061l.001-.058.004-.06.002-.096.005-.072.004-.075.006-.052.01-.071.01-.066.009-.067.012-.057.015-.07.012-.058.011-.044.016-.058.017-.05.02-.069.018-.05.026-.068.024-.065.024-.057.026-.072.034-.069L1 3.76l.028-.057.031-.06.026-.045.035-.059.04-.059.026-.046.031-.044.046-.064.039-.053.034-.05.037-.045.031-.042.029-.031.035-.037.028-.034.026-.027.033-.031.027-.033.041-.036.037-.036.072-.066.025-.026.034-.029.034-.029.03-.026.036-.03.042-.031.04-.03.04-.03.04-.024.05-.035.047-.033.05-.03.037-.026.048-.027.044-.025.032-.021.041-.017.031-.019.042-.02.048-.024.047-.02.027-.017.045-.016.038-.016.045-.02.036-.015.036-.014.035-.011.02-.008v3.01l.67-.64.002-2.537.008-.003.03-.005.033-.003.046-.007.045-.004h.028l.012.001.056-.006.06-.003.073-.003h.225l.082.003.07.005.052.005.05.005.054.006.04.006.037.005.001 3.177.673-.641V2.138l.01.003.023.01.032.011.043.015.03.014.043.018.048.02.045.022.044.02.048.024.054.027.038.019.033.017.029.019.033.018.027.014.035.022.03.02.037.02.032.022.032.022.032.022.032.021.038.028.034.025.027.02.028.022.03.023.034.026.04.036.034.028.033.03.035.03.035.035.026.02.025.026.04.04.034.036.024.026.025.027.036.04.039.044.032.038.019.028.024.033.029.035.024.031.022.03.023.032.026.037.023.036.021.03.019.026.02.029.018.029.017.032.016.03.02.035.017.027.014.026.015.032.014.023.014.026.02.043.022.047.012.024.011.026.012.026.01.026.012.032.01.026.015.029.01.023.007.024.011.032.007.023.01.03.01.034.011.034.013.035.012.047.01.038.015.062.008.032.008.036.01.049.002.009.007.038.009.045.006.05.007.048.008.062.006.056.005.067.004.06.005.078.003.087.619-.593L8 4.54l-.004-.026-.005-.032-.006-.033-.005-.026-.007-.04-.01-.034-.005-.033-.015-.055-.007-.03-.01-.035-.011-.04-.01-.034-.01-.035-.008-.028-.01-.032-.012-.036-.013-.038-.016-.048-.014-.038-.012-.038-.015-.035-.013-.03-.016-.045-.015-.034-.014-.03-.017-.037-.015-.034-.02-.044-.015-.034-.018-.031-.019-.039-.016-.03-.02-.038-.016-.03-.018-.031-.02-.034-.023-.037L7.5 3.2l-.02-.03-.019-.032-.018-.028-.02-.032-.017-.027-.022-.029-.015-.023-.016-.02-.023-.034-.024-.033-.021-.028-.02-.026-.022-.03-.024-.029-.024-.03-.014-.019-.022-.024-.013-.016-.024-.028-.022-.024-.024-.028-.037-.041-.03-.034-.029-.027-.027-.029-.03-.029-.044-.043-.038-.034-.031-.03-.038-.035-.034-.032-.03-.024-.04-.036-.034-.026-.027-.024-.037-.027-.031-.025-.037-.028-.034-.025-.039-.026-.034-.023-.04-.03-.037-.025-.03-.022-.031-.02-.033-.02-.038-.022-.04-.024-.036-.023-.031-.018-.038-.02-.033-.018-.037-.02-.04-.021-.033-.017-.039-.02-.038-.018-.034-.016-.047-.021-.042-.02-.043-.019-.054-.022-.04-.017-.047-.017-.04-.015-.036-.013-.04-.014-.054-.02-.04-.012-.045-.015-.036-.01-.023-.004L5.198.002l-.674.643v.676l-.054-.008-.071-.008-.058-.006-.096-.007-.09-.003-.053-.002-.129.002H3.89l-.098.004-.069.004-.017.004-.059.004-.06.005-.042.008-.02.008V0z"/>
</svg>
