<svg xmlns="http://www.w3.org/2000/svg" width="10" height="10" viewBox="0 0 10 10">
    <path fill="#FFF" fill-rule="nonzero" d="M8.536 1.466A4.967 4.967 0 0 0 5.068.004a.753.753 0 0 0-.136 0 4.967 4.967 0 0 0-3.468 1.462A4.963 4.963 0 0 0 0 5c0 1.335.52 2.59 1.464 3.534a4.967 4.967 0 0 0 3.468 1.462.745.745 0 0 0 .136 0 4.967 4.967 0 0 0 3.468-1.462A4.963 4.963 0 0 0 10 5c0-1.335-.52-2.59-1.464-3.534zm-6.651.42A4.382 4.382 0 0 1 3.76.773a4.77 4.77 0 0 0-.455.623c-.183.296-.34.616-.473.955H1.48c.123-.162.258-.318.405-.465zM1.1 2.946h1.532a7.451 7.451 0 0 0-.277 1.757H.604c.042-.621.211-1.217.497-1.757zm0 4.108a4.366 4.366 0 0 1-.497-1.757h1.752c.023.607.117 1.2.277 1.757H1.1zm.784 1.06a4.46 4.46 0 0 1-.405-.465h1.353c.132.339.29.66.473.955.143.232.297.441.455.623a4.382 4.382 0 0 1-1.876-1.113zm2.818 1.17c-.248-.162-.58-.488-.891-.992a5.215 5.215 0 0 1-.336-.643h1.227v1.635zm0-2.23h-1.45a6.795 6.795 0 0 1-.302-1.757h1.752v1.757zm0-2.351H2.95a6.793 6.793 0 0 1 .302-1.757h1.45v1.757zm0-2.352H3.476c.099-.226.21-.44.336-.643.31-.504.643-.83.89-.992v1.635zm4.196.595c.286.54.455 1.136.497 1.757H7.644a7.45 7.45 0 0 0-.277-1.757H8.9zm-.784-1.06c.147.147.282.303.405.465H7.167a5.917 5.917 0 0 0-.473-.955A4.77 4.77 0 0 0 6.24.773a4.382 4.382 0 0 1 1.876 1.113zM5.297.716c.248.162.58.488.891.992.125.202.237.417.336.643H5.297V.716zm0 2.23h1.45c.174.55.277 1.145.302 1.757H5.297V2.946zM7.05 5.297a6.793 6.793 0 0 1-.302 1.757h-1.45V5.297H7.05zM5.297 9.284V7.649h1.227c-.099.226-.21.441-.336.643-.31.504-.643.83-.89.992zm2.818-1.17c-.53.53-1.174.909-1.876 1.113a4.77 4.77 0 0 0 .455-.623c.183-.296.34-.616.473-.955H8.52a4.466 4.466 0 0 1-.405.465zm.784-1.06H7.367a7.45 7.45 0 0 0 .277-1.757h1.752a4.367 4.367 0 0 1-.497 1.757z"/>
</svg>
